<svg xmlns="http://www.w3.org/2000/svg" xmlns:xlink="http://www.w3.org/1999/xlink" width="100" zoomAndPan="magnify" viewBox="0 0 75 52.499999" height="70" preserveAspectRatio="xMidYMid meet" version="1.0"><defs><g/><clipPath id="id1"><path d="M 4 7 L 26.21875 7 L 26.21875 29.910156 L 4 29.910156 Z M 4 7 " clip-rule="nonzero"/></clipPath><clipPath id="id2"><path d="M 3.1875 6.878906 L 26.21875 6.878906 L 26.21875 29.910156 L 3.1875 29.910156 Z M 3.1875 6.878906 " clip-rule="nonzero"/></clipPath></defs><g clip-path="url(#id1)"><path fill="#2ee600" d="M 25.433594 21.460938 C 25.070312 21.332031 24.648438 21.46875 24.3125 21.78125 C 24.140625 21.941406 23.882812 21.972656 23.675781 21.863281 C 23.199219 21.621094 22.632812 21.332031 22.0625 21.035156 C 21.84375 20.921875 21.726562 20.679688 21.773438 20.441406 C 21.785156 20.386719 21.796875 20.335938 21.804688 20.28125 C 21.847656 20.035156 22.054688 19.847656 22.304688 19.824219 L 23.09375 19.761719 C 23.308594 19.742188 23.511719 19.851562 23.621094 20.03125 C 23.726562 20.207031 23.894531 20.320312 24.078125 20.3125 C 24.382812 20.300781 24.617188 19.980469 24.601562 19.59375 C 24.585938 19.207031 24.332031 18.90625 24.027344 18.914062 C 23.855469 18.921875 23.707031 19.027344 23.613281 19.1875 C 23.503906 19.371094 23.292969 19.476562 23.078125 19.453125 C 22.867188 19.429688 22.636719 19.40625 22.398438 19.382812 C 22.121094 19.351562 21.914062 19.125 21.902344 18.847656 C 21.878906 18.210938 21.765625 17.582031 21.570312 16.980469 C 21.484375 16.722656 21.609375 16.441406 21.859375 16.320312 L 23.460938 15.5625 C 23.695312 15.453125 23.972656 15.515625 24.132812 15.714844 C 24.496094 16.15625 25.011719 16.351562 25.4375 16.152344 C 25.984375 15.894531 26.164062 15.078125 25.839844 14.332031 C 25.515625 13.582031 24.808594 13.183594 24.261719 13.441406 C 23.914062 13.605469 23.714844 13.996094 23.699219 14.453125 C 23.691406 14.683594 23.53125 14.886719 23.304688 14.957031 C 22.75 15.132812 22.070312 15.347656 21.402344 15.550781 C 21.164062 15.625 20.90625 15.535156 20.773438 15.328125 C 20.769531 15.324219 20.769531 15.320312 20.765625 15.320312 C 20.632812 15.117188 20.648438 14.851562 20.808594 14.664062 L 21.921875 13.359375 C 22.066406 13.195312 22.292969 13.136719 22.507812 13.199219 C 22.753906 13.273438 23.003906 13.230469 23.160156 13.0625 C 23.40625 12.804688 23.328125 12.34375 22.992188 12.03125 C 22.65625 11.722656 22.183594 11.679688 21.941406 11.941406 C 21.796875 12.09375 21.765625 12.320312 21.835938 12.546875 C 21.902344 12.757812 21.828125 12.992188 21.652344 13.132812 C 21.292969 13.421875 20.839844 13.78125 20.4375 14.101562 C 20.222656 14.269531 19.914062 14.257812 19.714844 14.074219 C 19.40625 13.785156 19.066406 13.519531 18.699219 13.289062 C 18.480469 13.152344 18.386719 12.882812 18.472656 12.640625 L 19.195312 10.613281 C 19.28125 10.375 19.519531 10.222656 19.777344 10.25 C 20.351562 10.308594 20.855469 10.082031 21.011719 9.648438 C 21.214844 9.082031 20.761719 8.378906 19.996094 8.078125 C 19.230469 7.773438 18.449219 7.984375 18.246094 8.550781 C 18.117188 8.910156 18.253906 9.328125 18.570312 9.660156 C 18.730469 9.832031 18.757812 10.085938 18.652344 10.292969 C 18.355469 10.859375 17.992188 11.558594 17.632812 12.230469 C 17.507812 12.464844 17.230469 12.578125 16.976562 12.496094 C 16.765625 12.433594 16.550781 12.378906 16.339844 12.335938 C 16.097656 12.285156 15.917969 12.085938 15.898438 11.84375 L 15.773438 10.34375 C 15.753906 10.128906 15.875 9.925781 16.070312 9.824219 C 16.296875 9.699219 16.445312 9.496094 16.4375 9.269531 C 16.421875 8.914062 16.039062 8.640625 15.582031 8.65625 C 15.121094 8.675781 14.757812 8.972656 14.773438 9.328125 C 14.78125 9.539062 14.917969 9.722656 15.128906 9.832031 C 15.328125 9.933594 15.441406 10.148438 15.417969 10.371094 C 15.375 10.769531 15.324219 11.253906 15.273438 11.707031 C 15.242188 11.976562 15.015625 12.1875 14.742188 12.195312 C 14.414062 12.203125 14.089844 12.234375 13.765625 12.289062 C 13.519531 12.332031 13.277344 12.207031 13.171875 11.984375 L 12.300781 10.183594 C 12.191406 9.960938 12.25 9.699219 12.433594 9.535156 C 12.734375 9.261719 12.855469 8.898438 12.710938 8.597656 C 12.511719 8.179688 11.882812 8.042969 11.300781 8.289062 C 10.722656 8.535156 10.414062 9.070312 10.613281 9.488281 C 10.734375 9.738281 11.011719 9.886719 11.339844 9.910156 C 11.558594 9.929688 11.746094 10.082031 11.8125 10.289062 C 11.988281 10.832031 12.203125 11.507812 12.394531 12.128906 C 12.476562 12.394531 12.34375 12.679688 12.085938 12.792969 C 11.542969 13.03125 11.035156 13.335938 10.570312 13.707031 C 10.363281 13.871094 10.066406 13.867188 9.863281 13.695312 L 9.179688 13.125 C 9.011719 12.984375 8.953125 12.757812 9.015625 12.546875 C 9.089844 12.300781 9.046875 12.054688 8.878906 11.898438 C 8.617188 11.65625 8.152344 11.734375 7.839844 12.066406 C 7.527344 12.398438 7.484375 12.867188 7.746094 13.105469 C 7.902344 13.25 8.132812 13.28125 8.355469 13.214844 C 8.574219 13.148438 8.808594 13.21875 8.949219 13.394531 C 9.117188 13.597656 9.308594 13.832031 9.5 14.066406 C 9.664062 14.269531 9.660156 14.558594 9.496094 14.761719 C 9.289062 15.015625 9.097656 15.285156 8.925781 15.574219 C 8.792969 15.800781 8.515625 15.902344 8.261719 15.816406 L 6.785156 15.296875 C 6.542969 15.214844 6.390625 14.976562 6.417969 14.726562 C 6.476562 14.15625 6.25 13.65625 5.808594 13.5 C 5.238281 13.300781 4.527344 13.75 4.222656 14.507812 C 3.917969 15.261719 4.132812 16.039062 4.703125 16.238281 C 5.066406 16.367188 5.488281 16.230469 5.824219 15.917969 C 5.996094 15.757812 6.253906 15.730469 6.460938 15.835938 C 6.898438 16.058594 7.410156 16.324219 7.933594 16.59375 C 8.167969 16.714844 8.28125 16.980469 8.207031 17.234375 C 8.167969 17.382812 8.128906 17.53125 8.097656 17.683594 C 8.046875 17.917969 7.84375 18.097656 7.601562 18.117188 L 6.324219 18.222656 C 6.105469 18.238281 5.902344 18.121094 5.796875 17.925781 C 5.671875 17.703125 5.464844 17.558594 5.238281 17.566406 C 4.878906 17.578125 4.601562 17.957031 4.621094 18.414062 C 4.636719 18.867188 4.941406 19.226562 5.296875 19.210938 C 5.511719 19.203125 5.695312 19.066406 5.804688 18.859375 C 5.910156 18.664062 6.128906 18.546875 6.351562 18.570312 C 6.683594 18.605469 7.070312 18.648438 7.453125 18.6875 C 7.734375 18.71875 7.945312 18.953125 7.949219 19.230469 C 7.960938 19.804688 8.042969 20.371094 8.195312 20.921875 C 8.265625 21.179688 8.144531 21.449219 7.898438 21.566406 L 6.726562 22.121094 C 6.496094 22.230469 6.222656 22.167969 6.058594 21.972656 C 5.707031 21.550781 5.214844 21.367188 4.808594 21.558594 C 4.28125 21.804688 4.105469 22.59375 4.417969 23.316406 C 4.730469 24.042969 5.414062 24.425781 5.941406 24.179688 C 6.277344 24.019531 6.46875 23.644531 6.484375 23.207031 C 6.492188 22.976562 6.652344 22.78125 6.871094 22.710938 C 7.273438 22.582031 7.742188 22.4375 8.222656 22.285156 C 8.472656 22.207031 8.742188 22.316406 8.875 22.542969 C 8.921875 22.621094 8.96875 22.703125 9.019531 22.78125 C 9.148438 22.984375 9.128906 23.246094 8.972656 23.429688 L 8.148438 24.390625 C 8.011719 24.554688 7.789062 24.625 7.582031 24.566406 C 7.367188 24.507812 7.152344 24.546875 7.015625 24.691406 C 6.796875 24.925781 6.867188 25.335938 7.164062 25.613281 C 7.464844 25.886719 7.886719 25.925781 8.101562 25.695312 C 8.226562 25.558594 8.257812 25.363281 8.203125 25.171875 C 8.144531 24.964844 8.222656 24.742188 8.390625 24.605469 C 8.644531 24.402344 8.949219 24.160156 9.238281 23.929688 C 9.460938 23.753906 9.777344 23.777344 9.976562 23.976562 C 10.457031 24.453125 11.011719 24.867188 11.636719 25.195312 C 11.878906 25.324219 11.996094 25.609375 11.902344 25.867188 L 11.480469 27.050781 C 11.394531 27.289062 11.15625 27.441406 10.898438 27.414062 C 10.324219 27.355469 9.820312 27.578125 9.664062 28.015625 C 9.460938 28.582031 9.914062 29.285156 10.679688 29.585938 C 11.445312 29.890625 12.226562 29.675781 12.429688 29.113281 C 12.558594 28.753906 12.421875 28.335938 12.105469 28.003906 C 11.945312 27.832031 11.917969 27.578125 12.023438 27.371094 C 12.222656 26.992188 12.449219 26.554688 12.6875 26.105469 C 12.804688 25.878906 13.0625 25.765625 13.308594 25.824219 C 13.523438 25.875 13.738281 25.914062 13.953125 25.945312 C 14.210938 25.980469 14.410156 26.1875 14.433594 26.445312 L 14.566406 28.058594 C 14.585938 28.277344 14.464844 28.476562 14.269531 28.582031 C 14.042969 28.703125 13.894531 28.910156 13.90625 29.136719 C 13.917969 29.488281 14.300781 29.761719 14.761719 29.746094 C 15.21875 29.730469 15.582031 29.429688 15.570312 29.074219 C 15.5625 28.863281 15.421875 28.683594 15.214844 28.574219 C 15.015625 28.46875 14.898438 28.253906 14.921875 28.03125 C 14.972656 27.5625 15.035156 26.980469 15.09375 26.464844 C 15.125 26.207031 15.335938 26.007812 15.597656 25.980469 C 16.121094 25.929688 16.632812 25.820312 17.128906 25.660156 C 17.390625 25.570312 17.679688 25.695312 17.800781 25.945312 L 18.386719 27.160156 C 18.5 27.390625 18.4375 27.664062 18.238281 27.824219 C 17.789062 28.183594 17.59375 28.695312 17.792969 29.117188 C 18.054688 29.65625 18.875 29.835938 19.632812 29.515625 C 20.390625 29.195312 20.792969 28.496094 20.53125 27.953125 C 20.367188 27.605469 19.972656 27.410156 19.511719 27.394531 C 19.277344 27.386719 19.074219 27.230469 19 27.007812 C 18.859375 26.5625 18.691406 26.042969 18.523438 25.507812 C 18.449219 25.273438 18.542969 25.019531 18.75 24.882812 C 19.019531 24.707031 19.277344 24.515625 19.523438 24.304688 C 19.726562 24.125 20.035156 24.128906 20.242188 24.300781 L 20.902344 24.851562 C 21.070312 24.996094 21.128906 25.222656 21.066406 25.429688 C 20.992188 25.675781 21.03125 25.925781 21.203125 26.078125 C 21.464844 26.320312 21.929688 26.246094 22.242188 25.914062 C 22.554688 25.578125 22.597656 25.113281 22.335938 24.871094 C 22.179688 24.726562 21.949219 24.695312 21.726562 24.765625 C 21.507812 24.832031 21.273438 24.761719 21.132812 24.585938 C 20.957031 24.371094 20.757812 24.128906 20.554688 23.878906 C 20.398438 23.683594 20.394531 23.40625 20.542969 23.207031 C 20.871094 22.765625 21.152344 22.277344 21.375 21.75 C 21.378906 21.738281 21.382812 21.726562 21.386719 21.714844 L 23.351562 22.402344 C 23.59375 22.488281 23.746094 22.726562 23.71875 22.976562 C 23.65625 23.546875 23.886719 24.046875 24.328125 24.199219 C 24.898438 24.402344 25.609375 23.953125 25.914062 23.195312 C 26.21875 22.4375 26.003906 21.664062 25.433594 21.460938 " fill-opacity="1" fill-rule="nonzero"/></g><g clip-path="url(#id2)"><path stroke-linecap="round" transform="matrix(0.0120706, 0, 0, -0.0119493, -3.377889, 36.012763)" fill="none" stroke-linejoin="miter" d="M 2339.994218 1278.271574 C 2309.574168 1289.059318 2274.94709 1277.617772 2247.115981 1251.465666 C 2232.876808 1238.062712 2211.51805 1235.774403 2194.042702 1244.600739 C 2154.884978 1264.86862 2107.636816 1289.386219 2060.712271 1313.903818 C 2042.589688 1323.383956 2032.881162 1343.651838 2036.764572 1363.592818 C 2037.735425 1368.169437 2038.38266 1372.746055 2039.353513 1376.995772 C 2042.913306 1397.917457 2060.065036 1413.281819 2080.776559 1415.243227 L 2146.147305 1420.473648 C 2163.94627 1422.108154 2180.450765 1412.954917 2189.835674 1397.917457 C 2198.573348 1383.206897 2212.488903 1374.053661 2227.698928 1374.380562 C 2252.617479 1375.361266 2272.034532 1402.167174 2271.063679 1434.530404 C 2269.769209 1466.893635 2248.410451 1492.391938 2223.491899 1491.411234 C 2209.252727 1490.757431 2196.95526 1481.931095 2189.188439 1468.855043 C 2179.80353 1453.163779 2162.6518 1444.337444 2144.852834 1446.298852 C 2127.377487 1448.26026 2107.960434 1450.221668 2088.54338 1452.509977 C 2065.566534 1454.798286 2048.091187 1474.085464 2047.443951 1496.968556 C 2045.502246 1550.253471 2036.117337 1602.884583 2019.612842 1653.227386 C 2012.816873 1674.802873 2023.172635 1698.666669 2043.884158 1708.473709 L 2176.567354 1771.892564 C 2195.66079 1781.045801 2218.637636 1775.81538 2232.229573 1759.470314 C 2262.326006 1722.203564 2305.043522 1705.858498 2339.994218 1722.530465 C 2385.300675 1744.105952 2400.5107 1812.428328 2373.650443 1874.86648 C 2346.790186 1937.631533 2288.21541 1970.975467 2242.908952 1949.39998 C 2214.10699 1935.670125 2197.278878 1902.979993 2196.308025 1864.732539 C 2195.66079 1845.445361 2182.068853 1828.773394 2163.622652 1822.562269 C 2117.66896 1807.851709 2061.359506 1790.199038 2006.020905 1772.873268 C 1986.280234 1766.662143 1964.921476 1774.507775 1953.594861 1791.833545 C 1953.594861 1791.833545 1953.594861 1792.160446 1953.271244 1792.160446 C 1942.268247 1809.486216 1943.562717 1831.715506 1956.831037 1847.079868 L 2049.062039 1956.264908 C 2060.712271 1969.994763 2079.805707 1974.898283 2097.281054 1969.667862 C 2117.992578 1963.783638 2138.704101 1967.052651 2151.648803 1981.109408 C 2171.713091 2002.684895 2165.564358 2041.586152 2137.733248 2067.411356 C 2109.578521 2093.23656 2070.744415 2096.832474 2050.680127 2074.930086 C 2038.38266 2062.180935 2035.79372 2043.220658 2041.618835 2024.587283 C 2047.120334 2006.607711 2041.295218 1986.993632 2026.732428 1975.225184 C 1996.635996 1951.034487 1959.419977 1920.959565 1926.08737 1894.480559 C 1908.288404 1880.096901 1882.722618 1881.077605 1865.894505 1896.441967 C 1840.328718 1920.632664 1812.173991 1942.861954 1782.077559 1962.149131 C 1763.954976 1973.917579 1755.864538 1996.146869 1762.984124 2016.41475 L 1823.176988 2186.076534 C 1830.296574 2206.344416 1850.037245 2218.766666 1871.072386 2216.478357 C 1918.644166 2211.574837 1960.39083 2230.535113 1973.65915 2267.148061 C 1990.487262 2314.221851 1952.624009 2373.064088 1889.518586 2398.562391 C 1826.089546 2423.733792 1761.042418 2406.081121 1744.214306 2358.68043 C 1733.534926 2328.605509 1745.185158 2293.627068 1771.074562 2265.840456 C 1784.342882 2251.783699 1786.931822 2230.208212 1777.870531 2212.882442 C 1753.599215 2165.808653 1723.179165 2107.293317 1693.729968 2050.739389 C 1683.374206 2031.12531 1660.39736 2021.972073 1639.038601 2028.510099 C 1621.563254 2033.74052 1604.087906 2038.317139 1586.288941 2041.913053 C 1566.54827 2046.16277 1551.661863 2062.834737 1550.043775 2083.102619 L 1539.688013 2208.632725 C 1538.069925 2226.939199 1548.102069 2243.611166 1564.282947 2252.437502 C 1583.052765 2262.571443 1595.350232 2279.570311 1594.379379 2298.857489 C 1593.408527 2328.278608 1561.694007 2351.1617 1523.507136 2349.854094 C 1485.643882 2348.546489 1455.54745 2323.375088 1456.518302 2293.627068 C 1457.165538 2275.974397 1468.815769 2260.936936 1485.9675 2251.783699 C 1502.471995 2242.957364 1512.180521 2224.977791 1510.238816 2206.344416 C 1506.679023 2173.000481 1502.471995 2132.464718 1498.264967 2094.544165 C 1495.676026 2071.987974 1476.906208 2054.335303 1454.25298 2053.6815 C 1427.069105 2053.027698 1399.885231 2050.412487 1373.348592 2045.835869 C 1352.960686 2042.566856 1332.896398 2052.700797 1323.835106 2071.334172 L 1251.668392 2222.362581 C 1242.930718 2240.669054 1247.784982 2262.571443 1262.995007 2276.628199 C 1287.589941 2299.18439 1297.945702 2329.913114 1285.971853 2355.084516 C 1269.467358 2389.736055 1217.041314 2401.177601 1169.145917 2380.582818 C 1121.250519 2359.988035 1095.684733 2315.202555 1112.189228 2280.551015 C 1121.897754 2259.629331 1144.8746 2246.880179 1172.058475 2244.918771 C 1190.504675 2243.611166 1205.7147 2230.535113 1211.216198 2213.209344 C 1225.778988 2167.77006 1243.901571 2111.216132 1259.758831 2059.238823 C 1266.5548 2037.009533 1255.228185 2013.145737 1233.869427 2003.665599 C 1189.210205 1983.724618 1147.139923 1958.226316 1108.629435 1927.497592 C 1091.154087 1913.767736 1066.88277 1913.767736 1049.73104 1928.151394 L 993.421586 1975.878987 C 979.506032 1987.647434 974.651768 2006.607711 979.829649 2024.260382 C 985.978383 2044.855165 982.41859 2065.449948 968.503035 2078.526001 C 946.820659 2098.793882 907.986553 2092.582757 882.097149 2064.469244 C 856.207744 2036.682632 852.971569 1997.781375 874.653945 1977.513493 C 887.598647 1965.418145 906.368465 1962.802934 925.138283 1968.687158 C 942.937248 1974.24448 962.354301 1968.033355 974.328151 1953.649697 C 988.243705 1936.323927 1004.100965 1917.03675 1019.958226 1897.095769 C 1033.550163 1880.096901 1033.226545 1855.906203 1019.634608 1838.907335 C 1002.482878 1817.658749 986.625618 1795.102558 972.386445 1771.238762 C 961.059831 1751.951584 938.082985 1743.45215 917.371462 1750.97088 L 795.044027 1794.121854 C 774.979739 1800.986782 762.358655 1820.927762 764.623977 1842.176348 C 769.478241 1889.577039 750.708423 1931.420408 714.139639 1944.49646 C 666.891477 1961.495329 607.993083 1923.574776 582.750913 1860.482822 C 557.185127 1797.063966 574.984092 1732.010604 622.232255 1715.338636 C 652.652305 1704.550893 687.279383 1715.992439 715.110492 1742.144545 C 729.349664 1755.547499 750.708423 1757.835808 768.18377 1749.009472 C 804.105319 1730.376097 846.822835 1708.473709 889.86397 1685.590617 C 909.281023 1675.456676 918.989549 1653.227386 912.840816 1632.305702 C 909.281023 1619.883452 906.368465 1607.1343 903.455907 1594.71205 C 899.572496 1574.77107 882.744384 1560.06051 862.356478 1558.099103 L 756.857156 1549.599668 C 738.734573 1547.965162 721.582843 1557.772201 713.168787 1574.117267 C 702.813025 1593.077544 685.661295 1605.172892 666.567859 1604.51909 C 637.118662 1603.211484 614.141816 1571.502057 615.436286 1533.581504 C 617.054374 1495.334049 641.972925 1465.58603 671.74574 1466.566734 C 689.221088 1467.220536 704.75473 1478.662082 713.816022 1495.987852 C 722.553696 1512.659819 740.352661 1522.139958 759.122479 1520.17855 C 786.629971 1517.236438 818.668109 1513.967425 850.382629 1510.37151 C 873.359475 1507.7563 890.834822 1488.469122 891.482058 1464.932227 C 892.129293 1416.877733 899.248879 1369.477042 911.546346 1323.710858 C 917.695079 1302.135371 907.339318 1279.252278 887.275029 1269.445239 L 790.189764 1223.352153 C 771.096328 1213.872015 748.119482 1219.102436 734.527545 1235.774403 C 705.725583 1271.079745 664.626154 1286.117206 630.969929 1270.425943 C 587.281559 1249.504258 572.718769 1183.470192 598.931791 1122.993448 C 624.821195 1062.516705 681.454267 1030.153474 725.142636 1051.075158 C 752.973746 1064.151211 768.831006 1095.533738 770.125476 1132.146685 C 770.772711 1151.433863 783.717413 1167.778929 802.163613 1173.663153 C 835.496221 1184.450896 874.330327 1196.873146 914.135286 1209.295396 C 934.846809 1215.833423 957.176421 1206.680186 967.8558 1188.046811 C 971.73921 1181.181883 975.946239 1174.643857 980.153267 1167.778929 C 990.832646 1150.78006 989.214558 1128.877672 976.269856 1113.840212 L 907.986553 1033.095586 C 896.336321 1019.365731 878.213738 1013.481507 861.062008 1018.385027 C 843.263042 1023.288546 825.14046 1020.019533 814.137463 1007.924185 C 796.01488 988.637007 801.516378 953.985467 826.43493 931.102375 C 851.353481 907.892381 885.980559 904.950269 904.103142 924.237447 C 914.458904 935.352092 917.047844 951.697158 912.193581 968.042224 C 907.339318 985.367994 913.811669 1003.674467 928.050841 1015.116013 C 949.085982 1032.441783 974.328151 1052.382764 998.27585 1071.669941 C 1016.72205 1086.380501 1042.935072 1084.419093 1059.439567 1067.747126 C 1099.244526 1027.865165 1145.198218 993.213625 1196.977026 965.753914 C 1217.041314 954.966171 1226.426223 931.429276 1218.98302 909.853789 L 1183.708707 810.475788 C 1176.912738 790.534808 1156.84845 777.785657 1135.813309 780.073966 C 1088.241529 785.304387 1046.494865 766.344111 1033.226545 729.731163 C 1016.398432 682.657373 1054.261686 623.488235 1117.690726 598.316833 C 1180.796149 573.145432 1245.843276 590.798103 1262.671389 638.198794 C 1273.350768 668.273715 1262.024154 702.925255 1235.811132 731.038768 C 1222.542813 745.095525 1219.953872 766.344111 1229.015164 783.66988 C 1245.196041 815.379308 1264.289477 851.992256 1284.030148 889.912809 C 1293.738674 908.546184 1314.773815 918.026322 1335.485338 913.122802 C 1353.284304 908.873085 1371.083269 905.604072 1388.882234 902.988861 C 1410.240993 900.04675 1426.745488 882.72098 1428.363575 861.145493 L 1439.69019 726.135248 C 1441.308278 708.155676 1431.276133 691.156807 1415.095256 682.330472 C 1396.325438 672.196531 1384.027971 655.197662 1384.675206 635.910485 C 1385.969676 606.489366 1417.684196 583.606274 1455.54745 584.913879 C 1493.734321 586.221484 1523.830753 611.392886 1522.536283 641.140906 C 1521.889048 658.793577 1510.562434 673.831038 1493.087086 683.311176 C 1476.582591 691.81061 1467.197682 709.790183 1469.139387 728.423558 C 1473.022798 767.651716 1478.200678 816.360012 1483.378559 859.510986 C 1485.643882 881.086473 1503.11923 898.085342 1524.801606 900.04675 C 1568.166358 904.296467 1610.883874 913.449704 1651.983304 927.179559 C 1673.665679 934.371388 1697.613378 923.910546 1707.645522 902.988861 L 1756.188155 801.322552 C 1765.249447 782.035374 1760.395183 759.152282 1743.567071 745.749328 C 1706.351052 715.674406 1690.170175 672.850334 1706.998287 637.871893 C 1728.357046 592.432609 1796.640349 577.395149 1859.422154 604.527958 C 1921.880341 631.333866 1955.536567 689.849202 1933.854191 734.961584 C 1920.262254 764.055801 1887.253263 780.400867 1849.066392 781.708473 C 1829.649339 782.362275 1812.821227 795.765229 1806.996111 814.398604 C 1795.022261 851.338453 1781.106707 895.14323 1767.191152 939.601809 C 1761.042418 959.215888 1768.80924 980.791375 1786.284587 991.90602 C 1808.614198 1006.616579 1829.972957 1022.634744 1850.037245 1040.287415 C 1867.188975 1055.324876 1892.754762 1054.997974 1909.906492 1040.614316 L 1964.274241 994.52123 C 1978.189795 982.752783 1983.044059 963.792507 1977.866178 946.139835 C 1971.717444 925.545052 1975.277237 904.950269 1989.192792 891.874217 C 2010.875168 871.606335 2049.709274 877.81746 2075.598678 905.930973 C 2101.488082 933.717585 2104.724258 972.618842 2083.041882 992.886724 C 2070.09718 1004.982073 2051.327362 1007.597283 2032.557544 1001.713059 C 2014.758579 996.155737 1995.341526 1002.366862 1983.367676 1016.75052 C 1969.128504 1034.730093 1952.300391 1054.997974 1935.795896 1075.919659 C 1922.527577 1092.264725 1922.203959 1115.474718 1934.825043 1132.473587 C 1962.008918 1169.086534 1985.309382 1209.949199 2003.431964 1254.080877 C 2003.755582 1255.061581 2004.402817 1256.042285 2004.726435 1257.022989 L 2167.182445 1199.488357 C 2187.246734 1192.623429 2199.867818 1172.682449 2197.602495 1151.433863 C 2192.748232 1104.033172 2211.51805 1062.189803 2248.086833 1049.113751 C 2295.334996 1032.114882 2354.23339 1070.035435 2379.475559 1133.127389 C 2405.041346 1196.546245 2387.24238 1261.599607 2339.994218 1278.271574 Z M 2339.994218 1278.271574 " stroke="#26275d" stroke-width="27.493" stroke-opacity="1" stroke-miterlimit="10"/></g><path stroke-linecap="round" transform="matrix(0.0120706, 0, 0, -0.0119493, -3.377889, 36.012763)" fill="none" stroke-linejoin="miter" d="M 1518.97649 1908.864217 C 1518.97649 1889.577039 1489.203675 1874.212677 1452.634892 1874.539578 C 1416.066108 1874.86648 1386.616911 1890.884644 1386.940529 1910.171822 C 1387.264146 1929.459 1416.713344 1944.823362 1453.282127 1944.49646 C 1489.85091 1944.169559 1519.300107 1928.151394 1518.97649 1908.864217 Z M 1518.97649 1908.864217 " stroke="#26275d" stroke-width="27.493" stroke-opacity="1" stroke-miterlimit="10"/><path stroke-linecap="round" transform="matrix(0.0120706, 0, 0, -0.0119493, -3.377889, 36.012763)" fill="none" stroke-linejoin="miter" d="M 1153.288657 1377.322674 C 1137.107779 1373.072957 1116.719873 1395.956049 1107.9822 1428.973082 C 1099.244526 1461.990115 1105.393259 1492.065036 1121.574137 1496.641655 C 1137.755014 1500.891372 1158.14292 1477.681378 1166.880594 1444.664345 C 1175.941885 1411.974213 1169.793152 1381.572391 1153.288657 1377.322674 Z M 1153.288657 1377.322674 " stroke="#26275d" stroke-width="27.493" stroke-opacity="1" stroke-miterlimit="10"/><path stroke-linecap="round" transform="matrix(0.0120706, 0, 0, -0.0119493, -3.377889, 36.012763)" fill="none" stroke-linejoin="miter" d="M 1843.888512 1265.849324 C 1855.215126 1253.753976 1845.506599 1226.948067 1822.853371 1205.699482 C 1799.876525 1184.450896 1772.045415 1177.259067 1760.718801 1189.354416 C 1749.715804 1201.449765 1759.100713 1228.582574 1782.077559 1249.504258 C 1805.054405 1270.752844 1832.885515 1278.271574 1843.888512 1265.849324 Z M 1843.888512 1265.849324 " stroke="#26275d" stroke-width="27.493" stroke-opacity="1" stroke-miterlimit="10"/><path stroke-linecap="round" transform="matrix(0.0120706, 0, 0, -0.0119493, -3.377889, 36.012763)" fill="none" stroke-linejoin="miter" d="M 1567.84274 1264.214818 C 1555.545273 1279.906081 1566.224652 1308.673397 1591.466821 1327.960575 C 1616.70899 1347.247752 1646.805423 1349.862963 1659.10289 1334.1717 C 1671.400357 1318.153535 1660.720977 1289.713121 1635.478808 1270.425943 C 1610.236639 1251.138765 1580.140207 1248.196653 1567.84274 1264.214818 Z M 1567.84274 1264.214818 " stroke="#26275d" stroke-width="27.493" stroke-opacity="1" stroke-miterlimit="10"/><path stroke-linecap="round" transform="matrix(0.0120706, 0, 0, -0.0119493, -3.377889, 36.012763)" fill="none" stroke-linejoin="miter" d="M 1073.355122 1279.252278 C 1084.034501 1287.751713 1105.716877 1277.29087 1121.897754 1256.042285 C 1138.078632 1235.1206 1142.609278 1211.256804 1131.929898 1203.084271 C 1121.250519 1194.911738 1099.244526 1205.372581 1083.063648 1226.294265 C 1066.88277 1247.542851 1062.675742 1271.079745 1073.355122 1279.252278 Z M 1073.355122 1279.252278 " stroke="#26275d" stroke-width="27.493" stroke-opacity="1" stroke-miterlimit="10"/><path stroke-linecap="round" transform="matrix(0.0120706, 0, 0, -0.0119493, -3.377889, 36.012763)" fill="none" stroke-linejoin="miter" d="M 1766.543917 1889.577039 C 1777.223296 1897.749572 1798.905672 1887.615631 1815.086549 1866.367045 C 1831.267427 1845.445361 1835.798073 1821.581565 1825.118694 1813.409032 C 1814.439314 1805.236499 1792.433321 1815.697341 1776.252443 1836.619025 C 1760.071566 1857.867611 1755.864538 1881.404506 1766.543917 1889.577039 Z M 1766.543917 1889.577039 " stroke="#26275d" stroke-width="27.493" stroke-opacity="1" stroke-miterlimit="10"/><path stroke-linecap="round" transform="matrix(0.0120706, 0, 0, -0.0119493, -3.377889, 36.012763)" fill="none" stroke-linejoin="miter" d="M 1618.327078 1059.247691 C 1617.679843 1018.058125 1570.431681 985.367994 1512.827756 986.021796 C 1454.900215 986.348698 1408.622905 1020.346435 1408.946522 1061.209099 C 1409.27014 1102.398665 1456.518302 1135.088797 1514.445844 1134.761896 C 1572.049768 1134.108093 1618.650696 1100.110356 1618.327078 1059.247691 Z M 1618.327078 1059.247691 " stroke="#26275d" stroke-width="27.493" stroke-opacity="1" stroke-miterlimit="10"/><path stroke-linecap="round" transform="matrix(0.0120706, 0, 0, -0.0119493, -3.377889, 36.012763)" fill="none" stroke-linejoin="miter" d="M 1941.297395 1556.464596 C 1940.650159 1505.141089 1913.789903 1463.624622 1880.780912 1463.951523 C 1848.09554 1464.278424 1821.882518 1506.121793 1822.529753 1557.772201 C 1822.853371 1609.095708 1850.037245 1650.285274 1882.722618 1649.958373 C 1915.731608 1649.631472 1941.94463 1607.788103 1941.297395 1556.464596 Z M 1941.297395 1556.464596 " stroke="#26275d" stroke-width="27.493" stroke-opacity="1" stroke-miterlimit="10"/><path stroke-linecap="round" transform="matrix(0.0120706, 0, 0, -0.0119493, -3.377889, 36.012763)" fill="none" stroke-linejoin="miter" d="M 1168.498682 1695.724557 C 1136.136926 1650.612175 1087.917911 1630.017392 1060.734037 1649.631472 C 1033.550163 1668.918649 1037.757191 1721.549761 1070.118946 1766.335242 C 1102.480701 1811.447624 1150.699716 1832.042407 1177.883591 1812.428328 C 1205.067465 1792.814249 1200.860437 1740.510038 1168.498682 1695.724557 Z M 1168.498682 1695.724557 " stroke="#26275d" stroke-width="27.493" stroke-opacity="1" stroke-miterlimit="10"/><path stroke-linecap="round" transform="matrix(0.0120706, 0, 0, -0.0119493, -3.377889, 36.012763)" fill="none" stroke-linejoin="miter" d="M 1310.566787 1527.370379 C 1329.012987 1572.155859 1384.351588 1592.09684 1433.541456 1571.502057 C 1482.731324 1551.234175 1507.649876 1497.94926 1488.880058 1453.163779 C 1470.433857 1408.051398 1415.095256 1388.437319 1365.905388 1408.7052 C 1316.71552 1429.299983 1291.796969 1482.257997 1310.566787 1527.370379 Z M 1310.566787 1527.370379 " stroke="#26275d" stroke-width="27.493" stroke-opacity="1" stroke-miterlimit="10"/><path stroke-linecap="round" transform="matrix(0.0120706, 0, 0, -0.0119493, -3.377889, 36.012763)" fill="none" stroke-linejoin="miter" d="M 1557.163361 1734.625814 C 1571.402533 1768.623551 1614.443668 1783.334111 1653.601391 1766.989045 C 1692.759115 1750.97088 1712.823403 1709.781314 1698.907848 1675.783577 C 1684.668676 1641.458939 1641.303924 1626.748379 1602.146201 1643.093445 C 1562.988477 1659.438511 1542.924189 1700.301176 1557.163361 1734.625814 Z M 1557.163361 1734.625814 " stroke="#26275d" stroke-width="27.493" stroke-opacity="1" stroke-miterlimit="10"/><g fill="#cb6ce6" fill-opacity="1"><g transform="translate(28.108973, 19.636566)"><g><path d="M 0.5625 0.03125 C 0.457031 0.03125 0.375 0.00390625 0.3125 -0.046875 C 0.257812 -0.109375 0.234375 -0.195312 0.234375 -0.3125 L 0.234375 -2.234375 C 0.234375 -2.347656 0.257812 -2.429688 0.3125 -2.484375 C 0.375 -2.546875 0.457031 -2.578125 0.5625 -2.578125 C 0.664062 -2.578125 0.742188 -2.546875 0.796875 -2.484375 C 0.859375 -2.429688 0.890625 -2.347656 0.890625 -2.234375 L 0.890625 -1.5625 L 1.953125 -1.5625 L 1.953125 -2.234375 C 1.953125 -2.347656 1.976562 -2.429688 2.03125 -2.484375 C 2.09375 -2.546875 2.175781 -2.578125 2.28125 -2.578125 C 2.382812 -2.578125 2.460938 -2.546875 2.515625 -2.484375 C 2.578125 -2.429688 2.609375 -2.347656 2.609375 -2.234375 L 2.609375 -0.3125 C 2.609375 -0.195312 2.578125 -0.109375 2.515625 -0.046875 C 2.460938 0.00390625 2.382812 0.03125 2.28125 0.03125 C 2.164062 0.03125 2.082031 0.00390625 2.03125 -0.046875 C 1.976562 -0.109375 1.953125 -0.195312 1.953125 -0.3125 L 1.953125 -1.015625 L 0.890625 -1.015625 L 0.890625 -0.3125 C 0.890625 -0.195312 0.859375 -0.109375 0.796875 -0.046875 C 0.742188 0.00390625 0.664062 0.03125 0.5625 0.03125 Z M 0.5625 0.03125 "/></g></g></g><g fill="#cb6ce6" fill-opacity="1"><g transform="translate(30.940236, 19.636566)"><g><path d="M 0.578125 0 C 0.347656 0 0.234375 -0.113281 0.234375 -0.34375 L 0.234375 -2.203125 C 0.234375 -2.429688 0.347656 -2.546875 0.578125 -2.546875 L 1.796875 -2.546875 C 1.972656 -2.546875 2.0625 -2.460938 2.0625 -2.296875 C 2.0625 -2.117188 1.972656 -2.03125 1.796875 -2.03125 L 0.859375 -2.03125 L 0.859375 -1.546875 L 1.71875 -1.546875 C 1.894531 -1.546875 1.984375 -1.460938 1.984375 -1.296875 C 1.984375 -1.117188 1.894531 -1.03125 1.71875 -1.03125 L 0.859375 -1.03125 L 0.859375 -0.515625 L 1.796875 -0.515625 C 1.972656 -0.515625 2.0625 -0.425781 2.0625 -0.25 C 2.0625 -0.0820312 1.972656 0 1.796875 0 Z M 0.578125 0 "/></g></g></g><g fill="#cb6ce6" fill-opacity="1"><g transform="translate(33.151937, 19.636566)"><g><path d="M 0.34375 0.03125 C 0.238281 0.03125 0.15625 -0.00390625 0.09375 -0.078125 C 0.0390625 -0.160156 0.0390625 -0.257812 0.09375 -0.375 L 1 -2.3125 C 1.039062 -2.40625 1.09375 -2.472656 1.15625 -2.515625 C 1.21875 -2.554688 1.289062 -2.578125 1.375 -2.578125 C 1.457031 -2.578125 1.53125 -2.554688 1.59375 -2.515625 C 1.65625 -2.472656 1.707031 -2.40625 1.75 -2.3125 L 2.65625 -0.375 C 2.707031 -0.25 2.707031 -0.148438 2.65625 -0.078125 C 2.601562 -0.00390625 2.523438 0.03125 2.421875 0.03125 C 2.328125 0.03125 2.253906 0.0078125 2.203125 -0.03125 C 2.148438 -0.0703125 2.101562 -0.140625 2.0625 -0.234375 L 1.953125 -0.515625 L 0.8125 -0.515625 L 0.6875 -0.234375 C 0.644531 -0.140625 0.597656 -0.0703125 0.546875 -0.03125 C 0.503906 0.0078125 0.4375 0.03125 0.34375 0.03125 Z M 1.375 -1.859375 L 1.03125 -1.03125 L 1.71875 -1.03125 Z M 1.375 -1.859375 "/></g></g></g><g fill="#cb6ce6" fill-opacity="1"><g transform="translate(35.900351, 19.636566)"><g><path d="M 0.5625 0 C 0.457031 0 0.375 -0.0234375 0.3125 -0.078125 C 0.257812 -0.140625 0.234375 -0.222656 0.234375 -0.328125 L 0.234375 -2.21875 C 0.234375 -2.320312 0.257812 -2.398438 0.3125 -2.453125 C 0.375 -2.515625 0.457031 -2.546875 0.5625 -2.546875 C 0.664062 -2.546875 0.742188 -2.515625 0.796875 -2.453125 C 0.859375 -2.398438 0.890625 -2.320312 0.890625 -2.21875 L 0.890625 -0.546875 L 1.78125 -0.546875 C 1.863281 -0.546875 1.929688 -0.519531 1.984375 -0.46875 C 2.035156 -0.425781 2.0625 -0.363281 2.0625 -0.28125 C 2.0625 -0.1875 2.035156 -0.113281 1.984375 -0.0625 C 1.929688 -0.0195312 1.863281 0 1.78125 0 Z M 0.5625 0 "/></g></g></g><g fill="#cb6ce6" fill-opacity="1"><g transform="translate(38.007589, 19.636566)"><g><path d="M 1.15625 0.03125 C 1.050781 0.03125 0.96875 0.00390625 0.90625 -0.046875 C 0.851562 -0.109375 0.828125 -0.191406 0.828125 -0.296875 L 0.828125 -2 L 0.265625 -2 C 0.078125 -2 -0.015625 -2.09375 -0.015625 -2.28125 C -0.015625 -2.457031 0.078125 -2.546875 0.265625 -2.546875 L 2.0625 -2.546875 C 2.238281 -2.546875 2.328125 -2.457031 2.328125 -2.28125 C 2.328125 -2.09375 2.238281 -2 2.0625 -2 L 1.5 -2 L 1.5 -0.296875 C 1.5 -0.191406 1.46875 -0.109375 1.40625 -0.046875 C 1.351562 0.00390625 1.269531 0.03125 1.15625 0.03125 Z M 1.15625 0.03125 "/></g></g></g><g fill="#cb6ce6" fill-opacity="1"><g transform="translate(40.327352, 19.636566)"><g><path d="M 0.5625 0.03125 C 0.457031 0.03125 0.375 0.00390625 0.3125 -0.046875 C 0.257812 -0.109375 0.234375 -0.195312 0.234375 -0.3125 L 0.234375 -2.234375 C 0.234375 -2.347656 0.257812 -2.429688 0.3125 -2.484375 C 0.375 -2.546875 0.457031 -2.578125 0.5625 -2.578125 C 0.664062 -2.578125 0.742188 -2.546875 0.796875 -2.484375 C 0.859375 -2.429688 0.890625 -2.347656 0.890625 -2.234375 L 0.890625 -1.5625 L 1.953125 -1.5625 L 1.953125 -2.234375 C 1.953125 -2.347656 1.976562 -2.429688 2.03125 -2.484375 C 2.09375 -2.546875 2.175781 -2.578125 2.28125 -2.578125 C 2.382812 -2.578125 2.460938 -2.546875 2.515625 -2.484375 C 2.578125 -2.429688 2.609375 -2.347656 2.609375 -2.234375 L 2.609375 -0.3125 C 2.609375 -0.195312 2.578125 -0.109375 2.515625 -0.046875 C 2.460938 0.00390625 2.382812 0.03125 2.28125 0.03125 C 2.164062 0.03125 2.082031 0.00390625 2.03125 -0.046875 C 1.976562 -0.109375 1.953125 -0.195312 1.953125 -0.3125 L 1.953125 -1.015625 L 0.890625 -1.015625 L 0.890625 -0.3125 C 0.890625 -0.195312 0.859375 -0.109375 0.796875 -0.046875 C 0.742188 0.00390625 0.664062 0.03125 0.5625 0.03125 Z M 0.5625 0.03125 "/></g></g></g><g fill="#cb6ce6" fill-opacity="1"><g transform="translate(43.158615, 19.636566)"><g/></g></g><g fill="#cb6ce6" fill-opacity="1"><g transform="translate(44.188819, 19.636566)"><g><path d="M 0.5625 0.03125 C 0.457031 0.03125 0.375 0.00390625 0.3125 -0.046875 C 0.257812 -0.109375 0.234375 -0.191406 0.234375 -0.296875 L 0.234375 -2.203125 C 0.234375 -2.316406 0.257812 -2.398438 0.3125 -2.453125 C 0.375 -2.515625 0.457031 -2.546875 0.5625 -2.546875 L 1.453125 -2.546875 C 1.742188 -2.546875 1.96875 -2.472656 2.125 -2.328125 C 2.28125 -2.191406 2.359375 -2 2.359375 -1.75 C 2.359375 -1.5625 2.3125 -1.398438 2.21875 -1.265625 C 2.125 -1.140625 1.988281 -1.050781 1.8125 -1 C 1.9375 -0.96875 2.039062 -0.875 2.125 -0.71875 L 2.3125 -0.390625 C 2.351562 -0.316406 2.367188 -0.25 2.359375 -0.1875 C 2.359375 -0.125 2.332031 -0.0703125 2.28125 -0.03125 C 2.238281 0.0078125 2.171875 0.03125 2.078125 0.03125 C 1.984375 0.03125 1.90625 0.015625 1.84375 -0.015625 C 1.78125 -0.0546875 1.726562 -0.117188 1.6875 -0.203125 L 1.359375 -0.8125 C 1.328125 -0.863281 1.289062 -0.898438 1.25 -0.921875 C 1.207031 -0.941406 1.15625 -0.953125 1.09375 -0.953125 L 0.890625 -0.953125 L 0.890625 -0.296875 C 0.890625 -0.191406 0.859375 -0.109375 0.796875 -0.046875 C 0.742188 0.00390625 0.664062 0.03125 0.5625 0.03125 Z M 0.890625 -1.421875 L 1.328125 -1.421875 C 1.597656 -1.421875 1.734375 -1.523438 1.734375 -1.734375 C 1.734375 -1.929688 1.597656 -2.03125 1.328125 -2.03125 L 0.890625 -2.03125 Z M 0.890625 -1.421875 "/></g></g></g><g fill="#cb6ce6" fill-opacity="1"><g transform="translate(46.731913, 19.636566)"><g><path d="M 0.578125 0 C 0.347656 0 0.234375 -0.113281 0.234375 -0.34375 L 0.234375 -2.203125 C 0.234375 -2.429688 0.347656 -2.546875 0.578125 -2.546875 L 1.796875 -2.546875 C 1.972656 -2.546875 2.0625 -2.460938 2.0625 -2.296875 C 2.0625 -2.117188 1.972656 -2.03125 1.796875 -2.03125 L 0.859375 -2.03125 L 0.859375 -1.546875 L 1.71875 -1.546875 C 1.894531 -1.546875 1.984375 -1.460938 1.984375 -1.296875 C 1.984375 -1.117188 1.894531 -1.03125 1.71875 -1.03125 L 0.859375 -1.03125 L 0.859375 -0.515625 L 1.796875 -0.515625 C 1.972656 -0.515625 2.0625 -0.425781 2.0625 -0.25 C 2.0625 -0.0820312 1.972656 0 1.796875 0 Z M 0.578125 0 "/></g></g></g><g fill="#cb6ce6" fill-opacity="1"><g transform="translate(48.943613, 19.636566)"><g><path d="M 1.515625 0.046875 C 1.234375 0.046875 0.988281 -0.00390625 0.78125 -0.109375 C 0.582031 -0.222656 0.429688 -0.378906 0.328125 -0.578125 C 0.222656 -0.773438 0.171875 -1.007812 0.171875 -1.28125 C 0.171875 -1.539062 0.222656 -1.769531 0.328125 -1.96875 C 0.429688 -2.164062 0.582031 -2.316406 0.78125 -2.421875 C 0.988281 -2.523438 1.234375 -2.578125 1.515625 -2.578125 C 1.628906 -2.578125 1.742188 -2.566406 1.859375 -2.546875 C 1.984375 -2.523438 2.085938 -2.488281 2.171875 -2.4375 C 2.242188 -2.394531 2.289062 -2.347656 2.3125 -2.296875 C 2.34375 -2.242188 2.351562 -2.1875 2.34375 -2.125 C 2.332031 -2.070312 2.3125 -2.019531 2.28125 -1.96875 C 2.25 -1.925781 2.207031 -1.894531 2.15625 -1.875 C 2.101562 -1.863281 2.046875 -1.875 1.984375 -1.90625 C 1.835938 -1.96875 1.691406 -2 1.546875 -2 C 1.316406 -2 1.144531 -1.9375 1.03125 -1.8125 C 0.914062 -1.6875 0.859375 -1.507812 0.859375 -1.28125 C 0.859375 -1.039062 0.914062 -0.851562 1.03125 -0.71875 C 1.144531 -0.59375 1.316406 -0.53125 1.546875 -0.53125 C 1.609375 -0.53125 1.675781 -0.535156 1.75 -0.546875 C 1.820312 -0.566406 1.890625 -0.597656 1.953125 -0.640625 C 2.023438 -0.671875 2.085938 -0.675781 2.140625 -0.65625 C 2.203125 -0.644531 2.25 -0.617188 2.28125 -0.578125 C 2.320312 -0.535156 2.347656 -0.484375 2.359375 -0.421875 C 2.367188 -0.367188 2.359375 -0.3125 2.328125 -0.25 C 2.304688 -0.195312 2.265625 -0.15625 2.203125 -0.125 C 2.117188 -0.0703125 2.015625 -0.03125 1.890625 0 C 1.765625 0.03125 1.640625 0.046875 1.515625 0.046875 Z M 1.515625 0.046875 "/></g></g></g><g fill="#cb6ce6" fill-opacity="1"><g transform="translate(51.421869, 19.636566)"><g><path d="M 1.453125 0.046875 C 1.203125 0.046875 0.976562 -0.00390625 0.78125 -0.109375 C 0.582031 -0.222656 0.429688 -0.378906 0.328125 -0.578125 C 0.222656 -0.773438 0.171875 -1.007812 0.171875 -1.28125 C 0.171875 -1.539062 0.222656 -1.769531 0.328125 -1.96875 C 0.429688 -2.164062 0.582031 -2.316406 0.78125 -2.421875 C 0.976562 -2.523438 1.203125 -2.578125 1.453125 -2.578125 C 1.710938 -2.578125 1.9375 -2.523438 2.125 -2.421875 C 2.320312 -2.316406 2.472656 -2.164062 2.578125 -1.96875 C 2.691406 -1.769531 2.75 -1.539062 2.75 -1.28125 C 2.75 -1.007812 2.691406 -0.773438 2.578125 -0.578125 C 2.472656 -0.378906 2.320312 -0.222656 2.125 -0.109375 C 1.9375 -0.00390625 1.710938 0.046875 1.453125 0.046875 Z M 1.453125 -0.515625 C 1.640625 -0.515625 1.785156 -0.582031 1.890625 -0.71875 C 2.003906 -0.851562 2.0625 -1.039062 2.0625 -1.28125 C 2.0625 -1.507812 2.007812 -1.691406 1.90625 -1.828125 C 1.800781 -1.960938 1.648438 -2.03125 1.453125 -2.03125 C 1.265625 -2.03125 1.117188 -1.960938 1.015625 -1.828125 C 0.910156 -1.691406 0.859375 -1.507812 0.859375 -1.28125 C 0.859375 -1.039062 0.910156 -0.851562 1.015625 -0.71875 C 1.117188 -0.582031 1.265625 -0.515625 1.453125 -0.515625 Z M 1.453125 -0.515625 "/></g></g></g><g fill="#cb6ce6" fill-opacity="1"><g transform="translate(54.328775, 19.636566)"><g><path d="M 0.5625 0.03125 C 0.457031 0.03125 0.375 0.00390625 0.3125 -0.046875 C 0.257812 -0.109375 0.234375 -0.191406 0.234375 -0.296875 L 0.234375 -2.203125 C 0.234375 -2.316406 0.257812 -2.398438 0.3125 -2.453125 C 0.375 -2.515625 0.457031 -2.546875 0.5625 -2.546875 L 1.453125 -2.546875 C 1.742188 -2.546875 1.96875 -2.472656 2.125 -2.328125 C 2.28125 -2.191406 2.359375 -2 2.359375 -1.75 C 2.359375 -1.5625 2.3125 -1.398438 2.21875 -1.265625 C 2.125 -1.140625 1.988281 -1.050781 1.8125 -1 C 1.9375 -0.96875 2.039062 -0.875 2.125 -0.71875 L 2.3125 -0.390625 C 2.351562 -0.316406 2.367188 -0.25 2.359375 -0.1875 C 2.359375 -0.125 2.332031 -0.0703125 2.28125 -0.03125 C 2.238281 0.0078125 2.171875 0.03125 2.078125 0.03125 C 1.984375 0.03125 1.90625 0.015625 1.84375 -0.015625 C 1.78125 -0.0546875 1.726562 -0.117188 1.6875 -0.203125 L 1.359375 -0.8125 C 1.328125 -0.863281 1.289062 -0.898438 1.25 -0.921875 C 1.207031 -0.941406 1.15625 -0.953125 1.09375 -0.953125 L 0.890625 -0.953125 L 0.890625 -0.296875 C 0.890625 -0.191406 0.859375 -0.109375 0.796875 -0.046875 C 0.742188 0.00390625 0.664062 0.03125 0.5625 0.03125 Z M 0.890625 -1.421875 L 1.328125 -1.421875 C 1.597656 -1.421875 1.734375 -1.523438 1.734375 -1.734375 C 1.734375 -1.929688 1.597656 -2.03125 1.328125 -2.03125 L 0.890625 -2.03125 Z M 0.890625 -1.421875 "/></g></g></g><g fill="#cb6ce6" fill-opacity="1"><g transform="translate(56.871869, 19.636566)"><g><path d="M 0.578125 0 C 0.347656 0 0.234375 -0.113281 0.234375 -0.34375 L 0.234375 -2.203125 C 0.234375 -2.429688 0.347656 -2.546875 0.578125 -2.546875 L 1.28125 -2.546875 C 1.726562 -2.546875 2.070312 -2.429688 2.3125 -2.203125 C 2.550781 -1.984375 2.671875 -1.675781 2.671875 -1.28125 C 2.671875 -0.875 2.550781 -0.554688 2.3125 -0.328125 C 2.070312 -0.109375 1.726562 0 1.28125 0 Z M 0.890625 -0.53125 L 1.234375 -0.53125 C 1.492188 -0.53125 1.679688 -0.59375 1.796875 -0.71875 C 1.921875 -0.84375 1.984375 -1.03125 1.984375 -1.28125 C 1.984375 -1.519531 1.921875 -1.695312 1.796875 -1.8125 C 1.671875 -1.9375 1.484375 -2 1.234375 -2 L 0.890625 -2 Z M 0.890625 -0.53125 "/></g></g></g></svg>